<?xml version="1.0" standalone="no"?>
<!DOCTYPE svg PUBLIC "-//W3C//DTD SVG 20010904//EN"
 "http://www.w3.org/TR/2001/REC-SVG-20010904/DTD/svg10.dtd">
<svg version="1.0" xmlns="http://www.w3.org/2000/svg"
 width="512.000000pt" height="512.000000pt" viewBox="0 0 512.000000 512.000000"
 preserveAspectRatio="xMidYMid meet">

<g transform="translate(0.000000,512.000000) scale(0.100000,-0.100000)"
fill="#000000" stroke="none">
<path d="M2400 5113 c-629 -44 -1202 -304 -1645 -748 -404 -403 -653 -907
-731 -1475 -23 -169 -23 -491 0 -660 77 -563 326 -1069 721 -1466 148 -149
252 -235 410 -339 315 -208 654 -338 1037 -396 188 -29 523 -32 703 -5 588 85
1099 342 1495 753 611 632 854 1494 664 2352 -163 734 -678 1386 -1358 1721
-171 84 -284 128 -453 174 -269 75 -581 108 -843 89z m265 -2138 c260 -68 396
-359 280 -600 -80 -166 -262 -264 -442 -238 -237 34 -405 259 -366 489 43 251
287 411 528 349z m-2254 -429 c276 -45 565 -72 903 -84 l189 -7 18 -90 c84
-435 417 -770 846 -851 119 -22 345 -15 455 14 241 65 457 214 597 412 93 131
149 265 180 425 l18 90 84 2 c189 5 495 25 674 43 173 18 472 62 519 76 18 6
19 1 12 -117 -35 -618 -282 -1163 -717 -1584 -362 -350 -801 -565 -1304 -641
-166 -25 -484 -25 -650 0 -505 76 -950 295 -1308 645 -209 204 -347 392 -472
646 -148 299 -225 597 -242 932 l-6 126 25 -6 c14 -4 94 -18 179 -31z"/>
</g>
</svg>
